<svg width="60" height="60" viewBox="0 0 60 60" fill="none" xmlns="http://www.w3.org/2000/svg">
<path d="M30.5036 15C24.161 15.0252 19.0255 20.0987 19 26.3648C19 27.6197 19.205 28.8662 19.6066 30.0563C19.9063 30.8666 20.7955 31.3028 21.6302 31.0523C22.437 30.7467 22.8653 29.8753 22.6081 29.0603C22.2672 28.1326 22.1155 27.1486 22.1604 26.1634C22.2987 21.6376 26.1239 18.0791 30.705 18.2157C35.2861 18.3524 38.8881 22.1314 38.7498 26.6572C38.6199 30.8941 35.2424 34.3352 30.9586 34.5929C30.9586 34.5929 29.3438 34.69 28.5406 34.7871C28.2446 34.829 27.951 34.8865 27.6611 34.9596C27.6198 35.0016 27.5531 35.0016 27.5106 34.9608L27.5094 34.9596C27.4803 34.9225 27.4803 34.8698 27.5094 34.8326L27.7593 33.4854L29.2758 26.7471C29.4578 25.9057 28.9155 25.0775 28.0639 24.8977C27.2122 24.7179 26.3739 25.2537 26.1919 26.0951C26.1919 26.0951 22.585 42.5885 22.585 42.7383C22.3788 43.5401 22.8689 44.3552 23.6805 44.5589C23.689 44.5613 23.6987 44.5637 23.7072 44.5649H23.7909C24.6014 44.7723 25.4288 44.2904 25.6374 43.4898C25.6411 43.4766 25.6447 43.4634 25.6471 43.4491C25.6447 43.4239 25.6447 43.3987 25.6471 43.3747C25.692 43.1806 26.147 40.986 26.147 40.986C26.4915 39.3296 27.843 38.0603 29.5343 37.8038C29.8824 37.7511 31.3456 37.654 31.3456 37.654C37.6639 37.032 42.2753 31.467 41.6445 25.2249C41.0694 19.5318 36.2954 15.1486 30.5036 15Z" fill="#1E1E1E"/>
<path d="M31.201 41.2042C30.1637 40.9908 29.1495 41.6488 28.9335 42.6724C28.9311 42.682 28.9299 42.6916 28.9275 42.7012C28.703 43.7187 29.3557 44.7243 30.387 44.9461C30.3882 44.9461 30.3894 44.9461 30.3906 44.9473H30.444C31.4534 45.1882 32.4688 44.5745 32.7115 43.5785C32.7139 43.5713 32.7151 43.5629 32.7175 43.5557V43.4515C32.8959 42.4231 32.231 41.4367 31.201 41.2042Z" fill="#E6007A"/>
</svg>
