<svg width="24" height="24" viewBox="0 0 24 24" fill="none" xmlns="http://www.w3.org/2000/svg">
<path d="M5.80298 2.64621C7.43804 0.88207 9.65707 0 11.9929 0C14.2119 0 16.4309 1.00808 18.066 2.64621C19.7011 4.28434 20.6354 6.55252 20.7522 8.8207C20.869 11.2149 20.0514 13.4831 18.5332 15.2472C17.0149 17.0113 14.9126 18.1454 12.6936 18.2714C12.6936 18.2714 11.5257 18.3975 11.2921 18.3975C10.7082 18.5235 10.1242 18.7755 9.65707 19.2795C9.18991 19.7836 8.83953 20.2876 8.72274 21.0437C8.72274 21.0437 8.37237 22.8078 8.37237 22.9338C8.37237 23.0598 8.25558 23.3118 8.13879 23.4378C8.022 23.5639 7.90521 23.6899 7.78842 23.8159C7.67163 23.8159 7.55484 23.9419 7.32126 23.9419C7.20446 23.9419 6.97088 23.9419 6.85409 23.9419C6.7373 23.9419 6.50372 23.8159 6.38693 23.8159C6.27014 23.6899 6.15335 23.5639 6.03656 23.4378C5.91977 23.3118 5.91977 23.1858 5.91977 22.9338C5.91977 22.8078 5.91977 22.5558 5.91977 22.4298C5.91977 22.3038 8.72274 8.94671 8.72274 8.94671C8.83953 8.56868 8.95632 8.31666 9.1899 8.19065C9.42349 8.06464 9.77386 7.93863 10.1242 8.06464C10.4746 8.19065 10.7082 8.31666 10.9418 8.56868C11.0586 8.82069 11.1753 9.19873 11.0586 9.57676L9.89065 14.9952L9.65707 16.1293C9.89065 16.1293 10.1242 16.0033 10.3578 16.0033C10.9418 15.8773 12.2265 15.8773 12.2265 15.8773C13.5112 15.7512 14.6791 15.3732 15.6134 14.6172C16.5477 13.8611 17.3653 12.853 17.8324 11.5929C18.2996 10.3328 18.2996 9.07272 18.066 7.81262C17.8324 6.55252 17.1317 5.41843 16.3141 4.53636C15.3798 3.65429 14.3287 3.02424 13.044 2.77222C11.8761 2.5202 10.5914 2.64621 9.42349 3.15025C8.25558 3.65429 7.32125 4.41035 6.62051 5.54444C5.91977 6.55252 5.56939 7.81262 5.4526 9.07272C5.4526 9.82878 5.56939 10.7108 5.80298 11.4669C5.91977 11.8449 5.91977 12.097 5.68618 12.475C5.56939 12.727 5.33581 12.979 4.98544 13.105C4.63507 13.231 4.40149 13.231 4.05112 12.979C3.81753 12.853 3.58395 12.601 3.46716 12.223C3.11679 11.2149 3 10.2068 3 9.19872C3.23358 6.80454 4.16791 4.41035 5.80298 2.64621Z" fill="#222222"/>
<ellipse cx="12.2427" cy="22.624" rx="1.37598" ry="1.37598" fill="#F139A2"/>
</svg>
