<svg width="24" height="24" viewBox="0 0 24 24" fill="none" xmlns="http://www.w3.org/2000/svg">
<path opacity="0.7" d="M22.6444 1.32541C22.1943 0.674281 21.6941 0.184894 21.0941 0.0210695C20.3443 -0.141712 19.5945 0.674282 19.095 1.24506C18.5955 1.81584 17.5947 3.284 17.1957 3.85373C16.7962 4.42555 15.796 4.75112 14.1464 6.3831C12.4963 8.01405 6.09862 14.7016 6.09862 14.7016H7.74814L0.300326 20.9823H1.04952L0 22.2866C0.600002 22.5318 1.2 22.3691 1.74941 21.8797L1.74941 22.2866C1.74941 22.2866 10.597 16.5788 12.2965 18.046L11.247 18.5364C11.3469 18.5364 12.9964 18.6981 12.9964 18.6981C13.0963 19.8407 13.4958 20.8999 14.0965 21.4717C15.0961 22.5318 15.146 23.1851 15.146 23.1851C15.146 23.1851 14.6465 23.5106 14.6465 24C15.5962 23.5096 16.5957 23.5096 17.4954 24C17.4954 24 17.4455 23.5096 16.7456 23.184C16.0457 22.6946 15.4457 21.9611 14.9962 20.9009C14.5959 20.0035 14.4461 18.862 14.6958 17.8018C14.9462 16.7416 15.796 16.1698 17.5454 14.7027C19.5951 12.9893 20.0946 11.685 20.3449 10.6238C20.5947 9.5636 21.0941 7.60709 21.2946 6.62727C21.4944 5.72989 21.844 4.99633 22.2941 4.34416C22.8442 3.85478 23.4442 3.44678 23.9936 3.12122C24.0935 3.20261 22.994 1.73236 22.6444 1.32541Z" fill="#2F2F2F"/>
</svg>
