<svg width="60" height="60" viewBox="0 0 60 60" fill="none" xmlns="http://www.w3.org/2000/svg">
<path d="M43.3055 17.5694C42.743 16.7984 42.1177 16.2189 41.3677 16.0249C40.4304 15.8322 39.4932 16.7984 38.8688 17.4743C38.2445 18.1502 36.9934 19.8887 36.4947 20.5633C35.9953 21.2404 34.7449 21.6259 32.6831 23.5584C30.6204 25.4896 22.6233 33.4086 22.6233 33.4086H24.6852L15.3754 40.8456H16.3119L15 42.3901C15.75 42.6805 16.5 42.4877 17.1868 41.9082V42.3901C17.1868 42.3901 28.2463 35.6314 30.3706 37.3686L29.0587 37.9493C29.1836 37.9493 31.2455 38.1408 31.2455 38.1408C31.3704 39.4938 31.8698 40.748 32.6206 41.4251C33.87 42.6805 33.9326 43.4538 33.9326 43.4538C33.9326 43.4538 33.3082 43.8394 33.3082 44.4189C34.4953 43.8382 35.7447 43.8382 36.8693 44.4189C36.8693 44.4189 36.8069 43.8382 35.932 43.4526C35.0571 42.8731 34.3071 42.0045 33.7453 40.7491C33.2449 39.6866 33.0577 38.3349 33.3698 37.0795C33.6828 35.824 34.7449 35.147 36.9318 33.4097C39.4939 31.3809 40.1183 29.8363 40.4312 28.5798C40.7434 27.3244 41.3677 25.0077 41.6183 23.8475C41.8681 22.7849 42.3051 21.9163 42.8677 21.144C43.5553 20.5645 44.3053 20.0814 44.992 19.6959C45.1169 19.7923 43.7426 18.0513 43.3055 17.5694Z" fill="#222222"/>
</svg>
