<svg width="259" height="40" viewBox="0 0 259 40" fill="none" xmlns="http://www.w3.org/2000/svg">
<path d="M48 29.6721V10.5464H55.1633C56.7121 10.5464 57.9936 10.8015 59.0077 11.3115C60.0218 11.8215 60.7778 12.5228 61.2756 13.4153C61.7734 14.3078 62.0223 15.3097 62.0223 16.4208C62.0223 17.4772 61.7826 18.4517 61.3033 19.3443C60.8239 20.2186 60.0771 20.929 59.063 21.4754C58.0489 22.0036 56.749 22.2678 55.1633 22.2678H51.5402V29.6721H48ZM51.5402 19.4262H54.942C56.1774 19.4262 57.0624 19.1621 57.5971 18.6339C58.1503 18.0874 58.4269 17.3497 58.4269 16.4208C58.4269 15.4736 58.1503 14.7359 57.5971 14.2076C57.0624 13.6612 56.1774 13.388 54.942 13.388H51.5402V19.4262Z" fill="#2F2F2F"/>
<path d="M69.1351 30C67.955 30 66.987 29.8179 66.231 29.4536C65.4751 29.071 64.9127 28.5701 64.5439 27.9508C64.1752 27.3315 63.9908 26.6485 63.9908 25.9016C63.9908 24.6448 64.4886 23.6248 65.4843 22.8415C66.48 22.0583 67.9735 21.6667 69.9648 21.6667H73.4496V21.3388C73.4496 20.4098 73.1823 19.7268 72.6476 19.2896C72.1129 18.8525 71.4491 18.6339 70.6562 18.6339C69.9371 18.6339 69.3102 18.8069 68.7755 19.153C68.2408 19.4809 67.9089 19.9727 67.7799 20.6284H64.3227C64.4149 19.6448 64.7468 18.7887 65.3183 18.0601C65.9084 17.3315 66.6643 16.776 67.5863 16.3934C68.5082 15.9927 69.5407 15.7923 70.6839 15.7923C72.6384 15.7923 74.178 16.275 75.3027 17.2404C76.4274 18.2058 76.9898 19.5719 76.9898 21.3388V29.6721H73.9751L73.6432 27.4863C73.2376 28.2149 72.666 28.816 71.9285 29.2896C71.2094 29.7632 70.2782 30 69.1351 30ZM69.9371 27.2678C70.9513 27.2678 71.7349 26.9399 72.288 26.2842C72.8596 25.6284 73.2192 24.8179 73.3667 23.8525H70.352C69.4116 23.8525 68.7386 24.0255 68.333 24.3716C67.9274 24.6995 67.7245 25.1093 67.7245 25.6011C67.7245 26.1293 67.9274 26.5392 68.333 26.8306C68.7386 27.122 69.2734 27.2678 69.9371 27.2678Z" fill="#2F2F2F"/>
<path d="M80.9213 29.6721V16.1202H84.0742L84.4061 18.6612C84.9039 17.7869 85.5769 17.0947 86.4251 16.5847C87.2917 16.0565 88.3058 15.7923 89.4674 15.7923V19.4809H88.4718C87.6974 19.4809 87.0059 19.5993 86.3975 19.8361C85.789 20.0729 85.3096 20.4827 84.9593 21.0656C84.6274 21.6485 84.4614 22.459 84.4614 23.4973V29.6721H80.9213Z" fill="#2F2F2F"/>
<path d="M97.1696 30C95.9896 30 95.0215 29.8179 94.2656 29.4536C93.5096 29.071 92.9472 28.5701 92.5785 27.9508C92.2097 27.3315 92.0253 26.6485 92.0253 25.9016C92.0253 24.6448 92.5232 23.6248 93.5188 22.8415C94.5145 22.0583 96.008 21.6667 97.9993 21.6667H101.484V21.3388C101.484 20.4098 101.217 19.7268 100.682 19.2896C100.147 18.8525 99.4836 18.6339 98.6908 18.6339C97.9717 18.6339 97.3448 18.8069 96.8101 19.153C96.2753 19.4809 95.9435 19.9727 95.8144 20.6284H92.3572C92.4494 19.6448 92.7813 18.7887 93.3529 18.0601C93.9429 17.3315 94.6989 16.776 95.6208 16.3934C96.5427 15.9927 97.5753 15.7923 98.7184 15.7923C100.673 15.7923 102.212 16.275 103.337 17.2404C104.462 18.2058 105.024 19.5719 105.024 21.3388V29.6721H102.01L101.678 27.4863C101.272 28.2149 100.701 28.816 99.963 29.2896C99.2439 29.7632 98.3128 30 97.1696 30ZM97.9717 27.2678C98.9858 27.2678 99.7694 26.9399 100.323 26.2842C100.894 25.6284 101.254 24.8179 101.401 23.8525H98.3865C97.4462 23.8525 96.7732 24.0255 96.3675 24.3716C95.9619 24.6995 95.7591 25.1093 95.7591 25.6011C95.7591 26.1293 95.9619 26.5392 96.3675 26.8306C96.7732 27.122 97.3079 27.2678 97.9717 27.2678Z" fill="#2F2F2F"/>
<path d="M108.956 29.6721V10H112.496V29.6721H108.956Z" fill="#2F2F2F"/>
<path d="M116.666 29.6721V10H120.207V29.6721H116.666Z" fill="#2F2F2F"/>
<path d="M131.042 30C129.66 30 128.433 29.7086 127.364 29.1257C126.295 28.5428 125.456 27.7231 124.847 26.6667C124.239 25.6102 123.934 24.3898 123.934 23.0055C123.934 21.6029 124.23 20.3552 124.82 19.2623C125.428 18.1694 126.258 17.3224 127.309 16.7213C128.378 16.102 129.632 15.7923 131.07 15.7923C132.416 15.7923 133.605 16.0838 134.638 16.6667C135.67 17.2495 136.473 18.051 137.044 19.071C137.634 20.0729 137.929 21.1931 137.929 22.4317C137.929 22.6321 137.92 22.8415 137.902 23.0601C137.902 23.2787 137.892 23.5064 137.874 23.7432H127.447C127.521 24.7996 127.89 25.6284 128.553 26.2295C129.236 26.8306 130.056 27.1311 131.015 27.1311C131.734 27.1311 132.333 26.9763 132.813 26.6667C133.31 26.3388 133.679 25.9199 133.919 25.4098H137.514C137.256 26.2659 136.823 27.0492 136.214 27.7596C135.624 28.4517 134.887 28.9982 134.002 29.3989C133.135 29.7996 132.149 30 131.042 30ZM131.07 18.6339C130.204 18.6339 129.438 18.8798 128.775 19.3716C128.111 19.8452 127.687 20.5738 127.502 21.5574H134.334C134.278 20.6648 133.947 19.9545 133.338 19.4262C132.73 18.898 131.974 18.6339 131.07 18.6339Z" fill="#2F2F2F"/>
<path d="M141.46 29.6721V10H145V29.6721H141.46Z" fill="#2F2F2F"/>
<path fill-rule="evenodd" clip-rule="evenodd" d="M11.2086 19.1513L4.17091 22.3135C2.60641 23.0165 2.61068 25.2379 4.17785 25.9349L21.5296 33.6519C22.5674 34.1134 23.7533 34.1085 24.7872 33.6385L35.8352 28.6165C37.3881 27.9106 37.3852 25.7052 35.8305 25.0032L28.8833 21.8667L24.7878 23.7284C23.7539 24.1984 22.568 24.2032 21.5302 23.7417L11.2086 19.1513Z" fill="url(#paint0_linear_17_5)"/>
<path d="M15.4228 6.3489C16.4603 5.88268 17.6482 5.88375 18.685 6.35182L35.8324 14.0936C37.3871 14.7955 37.3899 17.0009 35.837 17.7068L24.789 22.7289C23.7551 23.1989 22.5692 23.2037 21.5314 22.7422L4.17968 15.0252C2.61251 14.3282 2.60825 12.1068 4.17274 11.4039L15.4228 6.3489Z" fill="url(#paint1_linear_17_5)"/>
<path d="M153.624 28L159.816 11.2H162.6L168.744 28H166.056L164.616 23.896H157.752L156.312 28H153.624ZM158.472 21.88H163.896L161.184 14.224L158.472 21.88ZM170.991 28V16.096H173.247L173.439 18.184C173.807 17.448 174.343 16.872 175.047 16.456C175.767 16.024 176.591 15.808 177.519 15.808C178.959 15.808 180.087 16.256 180.903 17.152C181.735 18.048 182.151 19.384 182.151 21.16V28H179.631V21.424C179.631 19.12 178.687 17.968 176.799 17.968C175.855 17.968 175.071 18.304 174.447 18.976C173.839 19.648 173.535 20.608 173.535 21.856V28H170.991ZM189.179 28.288C188.171 28.288 187.339 28.12 186.683 27.784C186.027 27.448 185.539 27.008 185.219 26.464C184.899 25.904 184.739 25.296 184.739 24.64C184.739 23.488 185.187 22.576 186.083 21.904C186.979 21.232 188.259 20.896 189.923 20.896H193.043V20.68C193.043 19.752 192.787 19.056 192.275 18.592C191.779 18.128 191.131 17.896 190.331 17.896C189.627 17.896 189.011 18.072 188.483 18.424C187.971 18.76 187.659 19.264 187.547 19.936H185.003C185.083 19.072 185.371 18.336 185.867 17.728C186.379 17.104 187.019 16.632 187.787 16.312C188.571 15.976 189.427 15.808 190.355 15.808C192.019 15.808 193.307 16.248 194.219 17.128C195.131 17.992 195.587 19.176 195.587 20.68V28H193.379L193.163 25.96C192.827 26.616 192.339 27.168 191.699 27.616C191.059 28.064 190.219 28.288 189.179 28.288ZM189.683 26.224C190.371 26.224 190.947 26.064 191.411 25.744C191.891 25.408 192.259 24.968 192.515 24.424C192.787 23.88 192.955 23.28 193.019 22.624H190.187C189.179 22.624 188.459 22.8 188.027 23.152C187.611 23.504 187.403 23.944 187.403 24.472C187.403 25.016 187.603 25.448 188.003 25.768C188.419 26.072 188.979 26.224 189.683 26.224ZM198.553 28V10.72H201.097V28H198.553ZM205.711 33.28L208.567 27.016H207.871L203.167 16.096H205.927L209.575 24.904L213.391 16.096H216.079L208.399 33.28H205.711ZM223.163 28C221.995 28 221.067 27.72 220.379 27.16C219.691 26.584 219.347 25.568 219.347 24.112V18.232H217.307V16.096H219.347L219.659 13.072H221.891V16.096H225.251V18.232H221.891V24.112C221.891 24.768 222.027 25.224 222.299 25.48C222.587 25.72 223.075 25.84 223.763 25.84H225.131V28H223.163ZM229.314 13.84C228.834 13.84 228.434 13.696 228.114 13.408C227.81 13.104 227.658 12.728 227.658 12.28C227.658 11.832 227.81 11.464 228.114 11.176C228.434 10.872 228.834 10.72 229.314 10.72C229.794 10.72 230.186 10.872 230.49 11.176C230.81 11.464 230.97 11.832 230.97 12.28C230.97 12.728 230.81 13.104 230.49 13.408C230.186 13.696 229.794 13.84 229.314 13.84ZM228.042 28V16.096H230.586V28H228.042ZM239.584 28.288C238.416 28.288 237.368 28.024 236.44 27.496C235.528 26.968 234.808 26.24 234.28 25.312C233.768 24.368 233.512 23.28 233.512 22.048C233.512 20.816 233.768 19.736 234.28 18.808C234.808 17.864 235.528 17.128 236.44 16.6C237.368 16.072 238.416 15.808 239.584 15.808C241.056 15.808 242.288 16.192 243.28 16.96C244.288 17.728 244.936 18.768 245.224 20.08H242.56C242.4 19.424 242.048 18.912 241.504 18.544C240.96 18.176 240.32 17.992 239.584 17.992C238.96 17.992 238.384 18.152 237.856 18.472C237.328 18.776 236.904 19.232 236.584 19.84C236.264 20.432 236.104 21.168 236.104 22.048C236.104 22.928 236.264 23.672 236.584 24.28C236.904 24.872 237.328 25.328 237.856 25.648C238.384 25.968 238.96 26.128 239.584 26.128C240.32 26.128 240.96 25.944 241.504 25.576C242.048 25.208 242.4 24.688 242.56 24.016H245.224C244.952 25.296 244.312 26.328 243.304 27.112C242.296 27.896 241.056 28.288 239.584 28.288ZM252.735 28.288C251.231 28.288 249.991 27.92 249.015 27.184C248.039 26.448 247.479 25.472 247.335 24.256H249.903C250.031 24.8 250.335 25.272 250.815 25.672C251.295 26.056 251.927 26.248 252.711 26.248C253.479 26.248 254.039 26.088 254.391 25.768C254.743 25.448 254.919 25.08 254.919 24.664C254.919 24.056 254.671 23.648 254.175 23.44C253.695 23.216 253.023 23.016 252.159 22.84C251.487 22.696 250.815 22.504 250.143 22.264C249.487 22.024 248.935 21.688 248.487 21.256C248.055 20.808 247.839 20.208 247.839 19.456C247.839 18.416 248.239 17.552 249.039 16.864C249.839 16.16 250.959 15.808 252.399 15.808C253.727 15.808 254.799 16.128 255.615 16.768C256.447 17.408 256.935 18.312 257.079 19.48H254.631C254.551 18.968 254.311 18.568 253.911 18.28C253.527 17.992 253.007 17.848 252.351 17.848C251.711 17.848 251.215 17.984 250.863 18.256C250.511 18.512 250.335 18.848 250.335 19.264C250.335 19.68 250.575 20.008 251.055 20.248C251.551 20.488 252.199 20.704 252.999 20.896C253.799 21.072 254.535 21.28 255.207 21.52C255.895 21.744 256.447 22.08 256.863 22.528C257.279 22.976 257.487 23.632 257.487 24.496C257.503 25.584 257.079 26.488 256.215 27.208C255.367 27.928 254.207 28.288 252.735 28.288Z" fill="#5E6D7C"/>
<defs>
<linearGradient id="paint0_linear_17_5" x1="36.9917" y1="24.9911" x2="3.00773" y2="24.9911" gradientUnits="userSpaceOnUse">
<stop stop-color="#EF18AC"/>
<stop offset="1" stop-color="#FAD972"/>
</linearGradient>
<linearGradient id="paint1_linear_17_5" x1="36.9929" y1="19.001" x2="3.00894" y2="19.001" gradientUnits="userSpaceOnUse">
<stop stop-color="#5314F1"/>
<stop offset="1" stop-color="#04E2FF"/>
</linearGradient>
</defs>
</svg>
