<?xml version="1.0" encoding="utf-8"?>
<svg version="1.1" id="Capa_1" xmlns="http://www.w3.org/2000/svg" xmlns:xlink="http://www.w3.org/1999/xlink" x="0px" y="0px"
	 viewBox="0 0 62 206.5" style="enable-background:new 0 0 62 206.5;" xml:space="preserve">
<style type="text/css">
	.st0{fill:#222222;}
</style>
<g>
	<path class="st0" d="M31.3,3C15.6,3,2.8,15.8,2.8,31.5s12.8,28.6,28.6,28.6s28.6-12.8,28.6-28.6S47.1,3,31.3,3z M31.3,49.2
		c-9.8,0-17.7-7.9-17.7-17.7s7.9-17.7,17.7-17.7S49,21.8,49,31.5S41.1,49.2,31.3,49.2z"/>
	<path class="st0" d="M30.6,131.6c15.8,0,28.6-12.8,28.6-28.6c0-15.8-12.8-28.6-28.6-28.6S2,87.3,2,103.1S14.8,131.6,30.6,131.6z
		 M30.6,85.4c9.8,0,17.7,7.9,17.7,17.7s-7.9,17.7-17.7,17.7s-17.7-7.9-17.7-17.7S20.8,85.4,30.6,85.4z"/>
	<path class="st0" d="M31.2,145.7c-15.8,0-28.6,12.8-28.6,28.6s12.8,28.6,28.6,28.6s28.6-12.8,28.6-28.6
		C59.8,158.5,47,145.7,31.2,145.7z M31.2,192c-9.8,0-17.7-7.9-17.7-17.7s7.9-17.7,17.7-17.7s17.7,7.9,17.7,17.7
		C48.9,184,41,192,31.2,192z"/>
</g>
</svg>
