<svg width="500" height="412" viewBox="0 0 500 412" fill="none" xmlns="http://www.w3.org/2000/svg">
<path fill-rule="evenodd" clip-rule="evenodd" d="M120.713 193.401L17.2192 239.904C-5.788 250.242 -5.72534 282.909 17.3213 293.159L272.493 406.643C287.754 413.43 305.194 413.359 320.399 406.447L482.868 332.593C505.705 322.213 505.663 289.78 482.8 279.458L380.634 233.332L320.406 260.71C305.201 267.622 287.761 267.693 272.5 260.906L120.713 193.401Z" fill="url(#paint0_linear_2310_1145)"/>
<path d="M182.689 5.13087C197.947 -1.72523 215.416 -1.7096 230.662 5.17378L482.829 119.022C505.692 129.345 505.733 161.777 482.897 172.158L320.427 246.012C305.222 252.923 287.783 252.995 272.522 246.207L17.3501 132.723C-5.69653 122.474 -5.75919 89.8061 17.248 79.4683L182.689 5.13087Z" fill="url(#paint1_linear_2310_1145)"/>
<defs>
<linearGradient id="paint0_linear_2310_1145" x1="499.876" y1="279.279" x2="0.11373" y2="279.279" gradientUnits="userSpaceOnUse">
<stop stop-color="#EF18AC"/>
<stop offset="1" stop-color="#FAD972"/>
</linearGradient>
<linearGradient id="paint1_linear_2310_1145" x1="499.896" y1="191.19" x2="0.133318" y2="191.19" gradientUnits="userSpaceOnUse">
<stop stop-color="#5314F1"/>
<stop offset="1" stop-color="#04E2FF"/>
</linearGradient>
</defs>
</svg>
